<svg width="834" height="600" xmlns="http://www.w3.org/2000/svg">
 <g>
  <title>Layer 1</title>
  <g id="svg_42">
   <line id="svg_1" y2="480" x2="400" y1="480" x1="300" stroke="#000" fill="none"/>
   <line stroke="#000" id="svg_15" y2="330" x2="340" y1="480" x1="300" fill="none"/>
   <line id="svg_17" y2="330" x2="360" y1="480" x1="400" stroke="#000" fill="none"/>
   <line id="svg_18" y2="300" x2="370" y1="330" x1="360" stroke="#000" fill="none"/>
   <line id="svg_20" y2="300" x2="330" y1="330" x1="340" stroke="#000" fill="none"/>
   <line id="svg_21" y2="300" x2="370" y1="330" x1="360" stroke="#000" fill="none"/>
  </g>
  <path stroke="#000000" id="svg_58" d="m325.03068,216.60558c23.59912,0 45.78751,9.73777 62.45564,27.40313c16.70646,17.67344 25.89157,41.22187 25.89157,66.28146l36.38007,0c0,-72.79486 -55.96166,-132.00533 -124.73494,-132.00533l0,38.32074l0.00767,0zm0.046,-67.94618c84.13034,0 152.5586,72.52818 152.5586,161.67117l36.36473,0c0,-110.27516 -84.75137,-199.99999 -188.93099,-199.99999l0,38.32882l0.00767,0zm50.29573,134.88221c0,14.66726 -11.2782,26.56269 -25.1862,26.56269s-25.1862,-11.89543 -25.1862,-26.56269c0,-14.6511 11.2782,-26.54653 25.1862,-26.54653s25.1862,11.88735 25.1862,26.54653z" fill="none"/>
 </g>

</svg>